HIERARCHY
ROOT pelvis
{
  OFFSET 0 100 0
  CHANNELS 6 Xposition Yposition Zposition Zrotation Xrotation Yrotation
  JOINT pelvis_right_femur
  {
    OFFSET -10.78128 -3.44521 -0.5502486
    CHANNELS 3 Zrotation Xrotation Yrotation
    JOINT right_femur_tibia
    {
      OFFSET -0.8047443 -44.0398 -0.1307829
      CHANNELS 3 Zrotation Xrotation Yrotation
      JOINT right_tibia_foot
      {
        OFFSET 3.006224 -47.83518 -5
        CHANNELS 3 Zrotation Xrotation Yrotation
        End Site
        {
          OFFSET 0 -5 15
        }
      }
    }
  }
  JOINT pelvis_left_femur
  {
    OFFSET 10.78128 -3.44521 -0.5502486
    CHANNELS 3 Zrotation Xrotation Yrotation
    JOINT left_femur_tibia
    {
      OFFSET 0.8047443 -44.0398 -0.1307829
      CHANNELS 3 Zrotation Xrotation Yrotation
      JOINT left_tibia_foot
      {
        OFFSET -4.370144 -48.10324 -4.275266
        CHANNELS 3 Zrotation Xrotation Yrotation
        End Site
        {
          OFFSET 0 -5 15
        }
      }
    }
  }
  JOINT pelvis_spine1
  {
    OFFSET 0 6.468898 -3.129235
    CHANNELS 3 Zrotation Xrotation Yrotation
    JOINT spine1
    {
      OFFSET 0 23.15396 4.99043
      CHANNELS 3 Zrotation Xrotation Yrotation
      JOINT spine2
      {
        OFFSET 0 20.79997 -5.064912
        CHANNELS 3 Zrotation Xrotation Yrotation
        JOINT neck
        {
          OFFSET 0 14.38658 9.616178
          CHANNELS 3 Zrotation Xrotation Yrotation
          End Site
          {
            OFFSET 0 20 0
          }
        }
      }
      JOINT right_manubrium
      {
        OFFSET -5.722621 16.35077 3.967754
        CHANNELS 3 Zrotation Xrotation Yrotation
        JOINT right_clavicle
        {
          OFFSET -13.16364 1.694482 -4.693211
          CHANNELS 3 Zrotation Xrotation Yrotation
          JOINT right_humerus
          {
            OFFSET -28.5034 -0.3100689 -2.792744
            CHANNELS 3 Zrotation Xrotation Yrotation
            JOINT right_radius
            {
              OFFSET -25.15693 0.02248979 -1.271978
              CHANNELS 3 Zrotation Xrotation Yrotation
              End Site
              {
                OFFSET -15 0 0
              }
            }
          }
        }
      }
      JOINT left_manubrium
      {
        OFFSET 5.722621 16.35077 3.967754
        CHANNELS 3 Zrotation Xrotation Yrotation
        JOINT left_clavicle
        {
          OFFSET 13.16364 1.694482 -4.693211
          CHANNELS 3 Zrotation Xrotation Yrotation
          JOINT left_humerus
          {
            OFFSET 29.39168 -1.063119 -2.237045
            CHANNELS 3 Zrotation Xrotation Yrotation
            JOINT left_radius
            {
              OFFSET 24.59957 -0.9528479 0.9047498
              CHANNELS 3 Zrotation Xrotation Yrotation
              End Site
              {
                OFFSET 15 -0 -0
              }
            }
          }
        }
      }
    }
  }
}
MOTION
Frames: 19
Frame Time: 0.0416666666667
-1321.516 108.4371 2281.687 -3.257247 -2.945641 -64.38093 1.061134 -26.40188 -5.301425 -0 3.936033 -0 -6.778595 4.635085 -2.710621 -5.679837 16.76309 -7.722916 -0 18.56042 -0 -0.5626321 -19.33542 12.09829 1.426719 -2.264888 7.49259 -0.527147 15.93083 -5.614941 2.058353 19.47505 1.594695 -1.212195 -21.72752 5.673299 -5.853628 -30.56001 10.74844 94.22697 18.08775 -10.84038 -0 0 24.38837 -21.86691 14.34739 15.35942 0.8471563 -21.36413 -7.129594 -91.73282 13.65283 34.47778 0 0 -16.83912 2.19252 10.94549 13.03196
-1327.856 107.703 2284.363 -3.199562 -2.428626 -64.13315 2.557995 -25.33021 -4.331341 -0 4.363531 -0 -7.193129 5.0404 -3.08882 -5.214228 17.28177 -7.15197 -0 25.40278 -0 -1.428737 -17.03147 11.5836 1.430908 -2.242123 7.567988 -0.5473849 15.92346 -5.612739 2.054725 19.35354 1.519223 -1.284979 -21.75371 5.6369 -5.941364 -30.78621 10.69333 94.1824 18.25643 -10.5749 -0 0 24.84864 -21.80303 14.41039 15.41592 0.7672787 -21.21776 -7.056082 -91.72263 13.50558 34.83264 0 0 -16.79212 1.976789 10.73509 13.25935
-1334.443 107.6489 2287.004 -3.816644 -1.899734 -64.14915 4.466479 -22.91927 -2.649459 -0 7.341886 -0 -7.792949 4.757348 -3.560223 -4.418582 16.45587 -6.677741 -0 34.22717 -0 -2.256073 -13.59678 11.59019 1.434436 -2.236165 7.653815 -0.5681944 15.90309 -5.591327 2.050031 19.20958 1.435223 -1.366666 -21.78846 5.599269 -6.013533 -31.07385 10.63629 94.0255 18.40479 -10.16867 -0 0 25.47962 -21.79778 14.54722 15.55648 0.7064248 -21.00559 -6.934989 -91.8131 13.34647 35.33673 0 0 -16.53848 1.730469 10.53521 13.49596
-1341.025 108.3069 2289.568 -4.934679 -1.586139 -64.56979 6.196987 -19.13456 -0.7524283 -0 11.06947 -0 -8.279584 3.450591 -4.056853 -3.541208 13.8087 -6.314193 -0 44.1892 -0 -2.959499 -9.823669 12.1511 1.436695 -2.251519 7.744942 -0.5873249 15.86822 -5.552424 2.043897 19.04895 1.348497 -1.45287 -21.83084 5.563266 -6.065673 -31.40981 10.58069 93.7576 18.52046 -9.638405 -0 0 26.25476 -21.85776 14.75474 15.77999 0.6714816 -20.73858 -6.768482 -92.00096 13.18171 35.96316 0 0 -16.08981 1.467422 10.3593 13.72492
-1347.34 109.5142 2292.01 -6.146242 -1.689525 -65.41688 7.125711 -14.1311 0.7931743 -0 13.58763 -0 -8.405431 1.171175 -4.439627 -2.874004 9.16891 -6.062897 -0 53.5281 -0 -3.556817 -6.781647 13.1176 1.437031 -2.291734 7.835205 -0.602569 15.81746 -5.498487 2.035878 18.88028 1.266937 -1.537458 -21.87934 5.532512 -6.093981 -31.77496 10.53036 93.38852 18.59132 -9.012251 -0 0 27.13133 -21.98677 15.02187 16.07991 0.6687059 -20.43346 -6.56244 -92.27675 13.0194 36.67224 0 0 -15.47183 1.205068 10.22115 13.92772
-1353.221 110.937 2294.289 -7.040624 -2.23078 -66.5361 7.043924 -8.387642 1.700023 -0 13.8834 -0 -8.166764 -1.619369 -4.53017 -2.492804 2.93004 -5.896976 -0 59.90086 -0 -4.027052 -5.219607 14.24879 1.434908 -2.35759 7.917643 -0.6122212 15.75063 -5.432604 2.025713 18.71569 1.199892 -1.612685 -21.93174 5.511012 -6.095884 -32.14333 10.48931 92.93983 18.60756 -8.332099 -0 0 28.04755 -22.1828 15.32769 16.44134 0.7021602 -20.11288 -6.328186 -92.62374 12.87054 37.41139 0 0 -14.72593 0.9639381 10.13325 14.08618
-1358.66 112.1829 2296.401 -7.466843 -2.969266 -67.68106 6.3284 -2.58168 2.087005 -0 12.43556 -0 -7.776204 -4.369002 -4.257131 -2.127209 -4.031351 -5.705057 -0 61.36492 -0 -4.287554 -5.065624 15.37509 1.430131 -2.445321 7.985192 -0.615573 15.67009 -5.358396 2.013634 18.57037 1.156575 -1.670066 -21.98505 5.502355 -6.070706 -32.48336 10.46119 92.44636 18.56434 -7.652798 -0 0 28.92462 -22.43495 15.64179 16.83897 0.7718664 -19.80394 -6.08339 -93.01779 12.74882 38.11868 0 0 -13.90827 0.7657534 10.10447 14.18546
-1363.767 112.9347 2298.393 -7.525576 -3.508816 -68.66885 5.598256 2.721754 2.224115 -0 10.52479 -0 -7.423187 -6.893078 -3.721085 -1.369383 -10.78927 -5.312173 -0 57.31193 -0 -4.333567 -5.590864 16.45667 1.423023 -2.546041 8.03185 -0.6131849 15.58164 -5.279933 2.000573 18.4603 1.143612 -1.70218 -22.03541 5.508596 -6.02011 -32.76222 10.44864 91.95312 18.46421 -7.035685 -0 0 29.67737 -22.72242 15.92915 17.23824 0.8725002 -19.53434 -5.850694 -93.42915 12.66856 38.73155 0 0 -13.08409 0.629716 10.13781 14.21734
-1368.689 113.0345 2300.355 -7.328276 -3.537035 -69.45345 5.235919 7.236516 2.228536 -0 9.134662 -0 -7.123099 -9.409954 -3.062019 -0.05634301 -16.70434 -4.622561 -0 48.70309 -0 -4.274192 -6.050841 17.46547 1.414431 -2.647394 8.053963 -0.6066536 15.49409 -5.201675 1.988083 18.39833 1.162701 -1.704862 -22.07833 5.529321 -5.947994 -32.95294 10.45271 91.50683 18.31769 -6.536677 -0 0 30.23265 -23.01726 16.15877 17.60105 0.99369 -19.32695 -5.653453 -93.82633 12.6407 39.19901 0 0 -12.31776 0.5680254 10.22933 14.1822
-1373.583 112.5074 2302.389 -6.874373 -3.001346 -70.09527 5.21686 10.88737 2.046082 -0 8.591116 -0 -6.805569 -12.09207 -2.339677 1.544386 -21.39735 -3.740465 -0 37.70191 -0 -4.206296 -6.120218 18.30314 1.405487 -2.737082 8.050979 -0.5979012 15.41724 -5.128326 1.977906 18.39031 1.209851 -1.678628 -22.10931 5.56155 -5.859841 -33.04096 10.47268 91.14513 18.14117 -6.193748 -0 0 30.54741 -23.29075 16.31231 17.89455 1.122307 -19.1951 -5.510025 -94.18095 12.66901 39.49182 0 0 -11.66191 0.5828696 10.36906 14.08834
-1378.596 111.5298 2304.58 -6.159419 -2.125167 -70.70016 5.238716 13.7404 1.64556 -0 8.867691 -0 -6.465937 -14.681 -1.574715 2.863309 -24.62641 -2.985834 -0 26.9725 -0 -4.134129 -5.889207 18.89132 1.397277 -2.806395 8.025288 -0.5884198 15.35916 -5.064432 1.971413 18.43364 1.276811 -1.628408 -22.12488 5.600633 -5.761844 -33.02687 10.50631 90.88906 17.95274 -6.020279 -0 0 30.6167 -23.52027 16.38739 18.09848 1.245741 -19.141 -5.42958 -94.47177 12.74863 39.60576 0 0 -11.15048 0.6666193 10.54346 13.94905
-1383.859 110.3492 2306.988 -5.304872 -1.2998 -71.36094 4.934107 16.01449 1.159646 -0 9.931535 -0 -6.199205 -16.49057 -0.8330919 3.329906 -26.313 -2.797828 -0 18.7492 -0 -4.008583 -5.645848 19.29333 1.390591 -2.851801 7.98132 -0.5789316 15.32439 -5.013798 1.96923 18.51885 1.35381 -1.561793 -22.12355 5.641634 -5.66021 -32.92399 10.55029 90.74239 17.76827 -6.007106 -0 0 30.46811 -23.69305 16.39448 18.20747 1.354458 -19.15781 -5.411524 -94.68648 12.86793 39.55714 0 0 -10.798 0.8049122 10.73804 13.77916
-1389.458 109.2005 2309.641 -4.543527 -0.9022055 -72.10211 4.058966 17.98277 0.8356752 -0 11.93683 -0 -6.120314 -16.68754 -0.2111367 2.671799 -26.58726 -3.51157 -0 14.06473 -0 -3.780933 -5.648903 19.68473 1.385864 -2.874161 7.924333 -0.5695334 15.31373 -4.97901 1.97123 18.63308 1.432104 -1.486836 -22.1061 5.680473 -5.560739 -32.7527 10.60091 90.69665 17.59929 -6.130901 -0 0 30.14725 -23.8056 16.34985 18.22783 1.442848 -19.23359 -5.448237 -94.82091 13.0123 39.37385 0 0 -10.604 0.9808718 10.9392 13.5926
-1395.416 108.2754 2312.527 -4.098307 -1.117074 -72.84651 2.614135 19.69899 0.8597835 -0 15.31621 -0 -6.272029 -14.64148 0.2520216 1.039958 -25.67936 -5.125482 -0 12.66761 -0 -3.406688 -5.988942 20.17352 1.383212 -2.876642 7.859289 -0.5600521 15.32527 -4.961327 1.976786 18.7638 1.505435 -1.410332 -22.07519 5.714489 -5.468591 -32.53412 10.65452 90.73838 17.45289 -6.364245 -0 0 29.70187 -23.86032 16.26885 18.17161 1.508644 -19.35555 -5.529167 -94.87642 13.1681 39.08565 0 0 -10.55992 1.178813 11.13538 13.40096
-1401.682 107.7405 2315.596 -4.080603 -1.864216 -73.43081 0.8764941 20.79561 1.205453 -0 20.67153 -0 -6.601981 -10.21211 0.5942579 -1.093724 -23.75954 -7.241985 -0 13.56225 -0 -2.842276 -6.57998 20.66648 1.382518 -2.86268 7.790058 -0.5503271 15.35573 -4.960989 1.985097 18.90129 1.570332 -1.336988 -22.03449 5.742464 -5.388206 -32.28543 10.70794 90.85523 17.33283 -6.683559 -0 0 29.17029 -23.86164 16.16175 18.05097 1.551713 -19.51304 -5.644351 -94.8566 13.32511 38.7169 0 0 -10.65589 1.386516 11.31739 13.21308
-1408.123 107.7445 2318.763 -4.470668 -2.855036 -73.66996 -0.6688393 20.5751 1.623267 -0 28.35123 -0 -7.005597 -3.939478 0.8362923 -3.151745 -20.90019 -9.231785 -0 15.57853 -0 -2.080774 -7.256345 20.93214 1.383502 -2.834849 7.719203 -0.5403134 15.40156 -4.977753 1.995406 19.03923 1.625594 -1.269496 -21.98785 5.764262 -5.323418 -32.01822 10.75849 91.03908 17.24108 -7.072705 -0 0 28.5773 -23.81337 16.03272 17.87496 1.572858 -19.69887 -5.786191 -94.76446 13.47705 38.28334 0 0 -10.88541 1.59567 11.4781 13.03525
-1414.525 108.3717 2321.92 -5.153403 -3.722961 -73.44491 -1.536013 18.34057 1.817055 -0 37.83886 -0 -7.375846 2.91143 0.8892166 -4.667381 -17.15276 -10.54313 -0 17.6382 -0 -1.197304 -7.904952 20.79425 1.385797 -2.794845 7.648388 -0.5300711 15.45931 -5.011274 2.007028 19.17375 1.671357 -1.209231 -21.93878 5.780318 -5.277677 -31.7398 10.80397 91.28566 17.17906 -7.52165 -0 0 27.93744 -23.71803 15.88161 17.64953 1.573011 -19.90866 -5.94925 -94.60144 13.62001 37.79389 0 0 -11.24617 1.800636 11.61162 12.87219
-1420.636 109.5576 2324.955 -5.965921 -4.180199 -72.77247 -1.538283 13.78636 1.699207 -0 47.35571 -0 -7.634877 8.649746 0.5953648 -5.438777 -12.65161 -10.99036 -0 18.86084 -0 -0.3413674 -8.556997 20.27617 1.389011 -2.744223 7.579232 -0.5197559 15.52553 -5.060998 2.019253 19.3015 1.708178 -1.157124 -21.89027 5.791173 -5.254104 -31.45658 10.84243 91.5913 17.14832 -8.021322 -0 0 27.26328 -23.57804 15.70719 17.3802 1.552994 -20.13862 -6.128611 -94.36888 13.75019 37.25637 0 0 -11.7362 1.996247 11.71251 12.72838
-1426.255 111.0389 2327.784 -6.737 -4.154547 -71.80999 -0.9078971 7.269353 1.425547 -0 54.21904 -0 -7.759148 11.89554 -0.09964019 -5.55565 -7.694337 -10.80704 -0 18.72645 -0 0.3307089 -9.384369 19.55665 1.39278 -2.685202 7.514109 -0.5096909 15.59637 -5.125553 2.031248 19.41828 1.736422 -1.114268 -21.8448 5.797185 -5.255123 -31.17744 10.87214 91.94853 17.15045 -8.557427 -0 0 26.57392 -23.39784 15.51037 17.07552 1.513758 -20.38291 -6.31795 -94.07145 13.8622 36.68446 0 0 -12.34666 2.175871 11.77544 12.60921
